<svg width="1000" height="1000" viewBox="0 0 1000 1000" fill="none" xmlns="http://www.w3.org/2000/svg">
<g filter="url(#filter0_d_961_34)">
<rect x="62" y="156" width="875" height="687.5" rx="62.5" fill="#292D3E"/>
</g>
<g filter="url(#filter1_dd_961_34)">
<path d="M142.85 475.5L140.05 370.5H175.75L173.3 475.5H142.85ZM217.05 475.5L214.25 370.5H249.95L247.5 475.5H217.05ZM751.303 475.5L748.503 370.5H784.203L781.753 475.5H751.303ZM825.503 475.5L822.703 370.5H858.403L855.953 475.5H825.503Z" fill="#89DDFF"/>
<path d="M324.79 629.5C316.156 629.5 309.273 626.933 304.14 621.8C298.773 616.667 296.09 610.017 296.09 601.85C296.09 593.217 298.773 586.217 304.14 580.85C309.273 575.483 316.156 572.8 324.79 572.8C333.423 572.8 340.423 575.483 345.79 580.85C350.923 586.217 353.49 593.217 353.49 601.85C353.49 610.017 350.923 616.667 345.79 621.8C340.423 626.933 333.423 629.5 324.79 629.5ZM499.44 629.5C490.807 629.5 483.923 626.933 478.79 621.8C473.423 616.667 470.74 610.017 470.74 601.85C470.74 593.217 473.423 586.217 478.79 580.85C483.923 575.483 490.807 572.8 499.44 572.8C508.073 572.8 515.073 575.483 520.44 580.85C525.573 586.217 528.14 593.217 528.14 601.85C528.14 610.017 525.573 616.667 520.44 621.8C515.073 626.933 508.073 629.5 499.44 629.5ZM674.09 629.5C665.457 629.5 658.457 626.933 653.09 621.8C647.957 616.667 645.39 610.017 645.39 601.85C645.39 593.217 647.957 586.217 653.09 580.85C658.457 575.483 665.457 572.8 674.09 572.8C682.723 572.8 689.607 575.483 694.74 580.85C700.107 586.217 702.79 593.217 702.79 601.85C702.79 610.017 700.107 616.667 694.74 621.8C689.607 626.933 682.723 629.5 674.09 629.5Z" fill="#C3E88D"/>
</g>
<defs>
<filter id="filter0_d_961_34" x="24" y="130" width="951" height="763.5" filterUnits="userSpaceOnUse" color-interpolation-filters="sRGB">
<feFlood flood-opacity="0" result="BackgroundImageFix"/>
<feColorMatrix in="SourceAlpha" type="matrix" values="0 0 0 0 0 0 0 0 0 0 0 0 0 0 0 0 0 0 127 0" result="hardAlpha"/>
<feMorphology radius="12" operator="erode" in="SourceAlpha" result="effect1_dropShadow_961_34"/>
<feOffset dy="12"/>
<feGaussianBlur stdDeviation="25"/>
<feComposite in2="hardAlpha" operator="out"/>
<feColorMatrix type="matrix" values="0 0 0 0 0.4 0 0 0 0 0.51 0 0 0 0 1 0 0 0 1 0"/>
<feBlend mode="normal" in2="BackgroundImageFix" result="effect1_dropShadow_961_34"/>
<feBlend mode="normal" in="SourceGraphic" in2="effect1_dropShadow_961_34" result="shape"/>
</filter>
<filter id="filter1_dd_961_34" x="115.05" y="365.5" width="768.354" height="309" filterUnits="userSpaceOnUse" color-interpolation-filters="sRGB">
<feFlood flood-opacity="0" result="BackgroundImageFix"/>
<feColorMatrix in="SourceAlpha" type="matrix" values="0 0 0 0 0 0 0 0 0 0 0 0 0 0 0 0 0 0 127 0" result="hardAlpha"/>
<feOffset dy="20"/>
<feGaussianBlur stdDeviation="12.5"/>
<feComposite in2="hardAlpha" operator="out"/>
<feColorMatrix type="matrix" values="0 0 0 0 0 0 0 0 0 0 0 0 0 0 0 0 0 0 0.33 0"/>
<feBlend mode="normal" in2="BackgroundImageFix" result="effect1_dropShadow_961_34"/>
<feColorMatrix in="SourceAlpha" type="matrix" values="0 0 0 0 0 0 0 0 0 0 0 0 0 0 0 0 0 0 127 0" result="hardAlpha"/>
<feOffset dy="8"/>
<feGaussianBlur stdDeviation="5"/>
<feComposite in2="hardAlpha" operator="out"/>
<feColorMatrix type="matrix" values="0 0 0 0 0 0 0 0 0 0 0 0 0 0 0 0 0 0 0.1 0"/>
<feBlend mode="normal" in2="effect1_dropShadow_961_34" result="effect2_dropShadow_961_34"/>
<feBlend mode="normal" in="SourceGraphic" in2="effect2_dropShadow_961_34" result="shape"/>
</filter>
</defs>
</svg>
